<?xml version="1.0" standalone="no"?>
<!DOCTYPE svg PUBLIC "-//W3C//DTD SVG 20010904//EN"
 "http://www.w3.org/TR/2001/REC-SVG-20010904/DTD/svg10.dtd">
<svg version="1.0" xmlns="http://www.w3.org/2000/svg"
 width="215.000000pt" height="48.000000pt" viewBox="0 0 215.000000 48.000000"
 preserveAspectRatio="xMidYMid meet">

<g transform="translate(0.000000,48.000000) scale(0.100000,-0.100000)"
fill="#000000" stroke="none">
<path d="M148 471 c-90 -29 -141 -99 -141 -192 0 -38 6 -67 17 -84 23 -34 41
-20 26 19 -47 125 62 254 190 224 55 -14 63 -14 67 -2 9 26 -108 51 -159 35z"/>
<path d="M450 320 l0 -140 35 0 c33 0 35 2 35 35 0 19 4 35 9 35 5 0 21 -16
35 -35 22 -28 34 -35 62 -35 18 0 34 3 34 6 0 3 -16 26 -35 51 l-34 45 35 47
36 46 -33 3 c-28 3 -38 -2 -62 -32 -16 -20 -33 -36 -38 -36 -5 0 -9 34 -9 75
l0 75 -35 0 -35 0 0 -140z"/>
<path d="M1330 368 c0 -118 11 -158 49 -181 29 -17 30 -17 45 5 14 20 14 24
-4 43 -17 18 -20 35 -20 123 l0 102 -35 0 -35 0 0 -92z"/>
<path d="M1460 320 l0 -140 30 0 c28 0 30 3 30 35 0 46 20 46 51 0 20 -30 30
-35 62 -35 l39 0 -37 50 c-41 56 -42 48 15 123 l22 27 -36 0 c-28 0 -40 -7
-62 -35 -42 -56 -54 -47 -54 40 l0 75 -30 0 -30 0 0 -140z"/>
<path d="M175 383 c-91 -24 -113 -138 -36 -190 42 -29 86 -29 130 -2 l35 21
-24 18 c-22 16 -26 17 -47 3 -19 -13 -29 -13 -48 -5 -45 21 -27 32 50 32 l75
0 0 28 c0 37 -25 71 -66 88 -35 15 -37 15 -69 7z m58 -57 c27 -20 21 -26 -28
-26 -47 0 -58 12 -27 29 23 14 33 13 55 -3z"/>
<path d="M346 381 c-4 -5 -2 -21 4 -36 27 -72 1 -161 -59 -200 -59 -38 -99
-40 -174 -10 -26 11 -21 -20 7 -38 13 -9 34 -32 46 -51 12 -20 25 -36 30 -36
5 0 18 16 31 36 12 20 43 49 70 65 54 34 99 109 99 166 0 56 -39 130 -54 104z"/>
<path d="M2031 374 c-17 -7 -31 -9 -31 -4 0 6 -13 10 -30 10 l-30 0 0 -100 0
-100 35 0 35 0 0 69 c0 61 2 70 20 76 36 11 50 -12 50 -81 l0 -64 30 0 30 0 0
83 c0 67 -3 87 -17 99 -27 23 -57 27 -92 12z"/>
<path d="M690 295 l0 -85 33 -21 c45 -28 113 -21 144 16 20 22 23 37 23 101
l0 74 -35 0 -34 0 -3 -72 -3 -73 -30 0 -30 0 -3 73 -3 72 -29 0 -30 0 0 -85z"/>
<path d="M930 280 l0 -100 30 0 c30 0 30 1 30 55 0 56 22 95 54 95 9 0 12 8 8
25 -5 27 -29 33 -51 13 -11 -10 -14 -10 -18 0 -3 6 -16 12 -29 12 -24 0 -24
-1 -24 -100z"/>
<path d="M1099 351 c-48 -49 -34 -142 26 -169 34 -16 50 -15 85 3 17 9 30 11
30 5 0 -5 14 -10 30 -10 l30 0 0 100 0 100 -29 0 c-16 0 -31 -6 -34 -12 -4
-10 -7 -10 -18 0 -7 6 -30 12 -52 12 -29 0 -46 -7 -68 -29z m112 -31 c22 -12
26 -59 7 -78 -15 -15 -51 -15 -66 0 -18 18 -15 65 6 77 22 13 29 13 53 1z"/>
<path d="M1707 354 c-44 -43 -44 -108 0 -156 24 -27 78 -33 108 -14 14 9 25
12 25 6 0 -5 14 -10 30 -10 l30 0 0 100 0 100 -30 0 c-17 0 -30 -5 -30 -12 0
-9 -3 -9 -12 0 -7 7 -31 12 -54 12 -31 0 -48 -6 -67 -26z m118 -44 c28 -31 10
-74 -32 -78 -25 -3 -33 1 -39 20 -10 30 -6 50 14 66 22 17 36 15 57 -8z"/>
<path d="M1752 124 c-26 -18 -29 -56 -6 -78 19 -20 44 -20 70 -1 20 15 17 17
-26 19 -15 1 -26 8 -28 19 -4 19 27 36 37 19 4 -7 11 -8 21 -1 13 8 12 12 -4
24 -25 19 -36 19 -64 -1z"/>
<path d="M1872 124 c-30 -21 -29 -59 4 -81 24 -15 29 -15 53 -2 35 20 40 62 9
83 -28 20 -38 20 -66 0z m45 -25 c14 -14 6 -39 -12 -39 -18 0 -28 17 -21 35 6
18 18 19 33 4z"/>
<path d="M2008 133 c-26 -4 -28 -8 -28 -54 0 -36 4 -49 14 -49 10 0 16 13 18
38 2 25 8 37 18 37 10 0 16 -12 18 -37 2 -24 8 -38 17 -38 9 0 15 14 17 38 4
51 32 51 36 -1 5 -53 32 -51 32 2 0 45 -23 76 -49 65 -19 -8 -31 -8 -51 -2 -8
3 -27 3 -42 1z"/>
<path d="M1674 59 c-10 -17 13 -36 27 -22 12 12 4 33 -11 33 -5 0 -12 -5 -16
-11z"/>
</g>
</svg>
