<svg xmlns="http://www.w3.org/2000/svg" width="18" height="18" viewBox="0 0 18 18">
    <g id="Group_1972" data-name="Group 1972" transform="translate(-1816.33 -42)">
        <path id="Path_1883" data-name="Path 1883"
            d="M17.582,1.831H4.08a.406.406,0,0,0-.4.363L1.834,19.382a.406.406,0,0,0,.361.447l.043,0H19.425a.406.406,0,0,0,.406-.406.37.37,0,0,0,0-.043L17.986,2.194A.406.406,0,0,0,17.582,1.831ZM2.689,19.019,4.445,2.643H17.217l1.756,16.376Z"
            transform="translate(1814.499 40.169)" fill="#1c1c1c"></path>
        <path id="Path_1884" data-name="Path 1884"
            d="M24.178,9.491a.519.519,0,0,0-.519.519h0V11.1a4.054,4.054,0,0,1-8.107,0V10.01a.519.519,0,1,0-1.038,0V11.1a5.091,5.091,0,1,0,10.183,0v-1.1a.519.519,0,0,0-.519-.519Z"
            transform="translate(1805.828 35.263)" fill="#1c1c1c"></path>
    </g>
</svg>
