<svg xmlns="http://www.w3.org/2000/svg" width="19" height="21.104" viewBox="0 0 19 21.104">
  <g id="Icon_feather-box" data-name="Icon feather-box" transform="translate(-4 -2.477)">
    <path id="Path_1975" data-name="Path 1975" d="M22.5,17V9a2,2,0,0,0-1-1.73l-7-4a2,2,0,0,0-2,0l-7,4A2,2,0,0,0,4.5,9v8a2,2,0,0,0,1,1.73l7,4a2,2,0,0,0,2,0l7-4a2,2,0,0,0,1-1.73Z" transform="translate(0 0)" fill="none" stroke="#1c1c1c" stroke-linecap="round" stroke-linejoin="round" stroke-width="1"/>
    <path id="Path_1976" data-name="Path 1976" d="M4.905,10.44l8.73,5.05,8.73-5.05" transform="translate(-0.135 -2.479)" fill="none" stroke="#1c1c1c" stroke-linecap="round" stroke-linejoin="round" stroke-width="1"/>
    <path id="Path_1977" data-name="Path 1977" d="M18,28.08V18" transform="translate(-4.5 -4.999)" fill="none" stroke="#1c1c1c" stroke-linecap="round" stroke-linejoin="round" stroke-width="1"/>
  </g>
</svg>
